<?xml version="1.0" encoding="UTF-8"?>
<svg width="369px" height="86px" viewBox="0 0 369 86" version="1.1" xmlns="http://www.w3.org/2000/svg" xmlns:xlink="http://www.w3.org/1999/xlink">
    <!-- Generator: Sketch 48.2 (47327) - http://www.bohemiancoding.com/sketch -->
    <title>logo--hroglist</title>
    <desc>Created with Sketch.</desc>
    <defs>
        <polygon id="path-1" points="0.148427443 0.0503426252 190.571165 0.0503426252 190.571165 79.986504 0.148427443 79.986504"></polygon>
        <polygon id="path-3" points="0 85.4666717 368.200499 85.4666717 368.200499 0.31210555 0 0.31210555"></polygon>
    </defs>
    <g id="SERVICEpage" stroke="none" stroke-width="1" fill="none" fill-rule="evenodd" transform="translate(-734.000000, -1772.000000)">
        <g id="リスト" transform="translate(0.000000, 1551.000000)">
            <g id="logo--hroglist" transform="translate(734.000000, 221.000000)">
                <path d="M55.99974,36.1405743 L55.99974,23.1295181 L63.9487302,23.1295181 C67.5171268,23.1295181 70.410036,26.0423992 70.410036,29.6350462 C70.410036,33.2280053 67.5171268,36.1405743 63.9487302,36.1405743 L55.99974,36.1405743 Z M77.3155701,36.1405743 C78.2616866,34.1736851 78.7924046,31.9670989 78.7924046,29.6350462 C78.7924046,27.3033056 78.2616866,25.0964073 77.3155701,23.1295181 C74.9130791,18.134893 69.8306482,14.6898719 63.9487302,14.6898719 C63.9440802,14.6898719 63.9397403,14.690184 63.9357103,14.690184 L47.6170615,14.6898719 L47.6170615,67.1442033 L55.99974,67.1442033 L55.99974,44.5802205 L57.4666545,44.5802205 L74.0407424,67.1442033 L84.4666233,67.1442033 L67.5636267,44.1320369 C71.8645505,43.0484064 75.4220972,40.0762253 77.3155701,36.1405743 Z" id="Fill-1" fill="#FFFFFF"></path>
                <path d="M144.481995,59.4448715 C139.466524,59.4448715 135.400889,55.3516072 135.400889,50.3020515 C135.400889,45.2524958 139.466524,41.1592315 144.481995,41.1592315 C149.497156,41.1592315 153.562791,45.2518716 153.563101,50.3011152 L153.563101,50.3029878 C153.562791,55.3522314 149.497156,59.4448715 144.481995,59.4448715 Z M161.94578,32.7195853 L153.563101,32.7195853 L153.563101,35.2816598 C150.917261,33.6565262 147.808283,32.7195853 144.481995,32.7195853 C134.837311,32.7195853 127.018521,40.5918236 127.018521,50.3020515 C127.018521,60.0122794 134.837311,67.8845177 144.481995,67.8845177 C147.808283,67.8845177 150.917261,66.9475768 153.563101,65.3224432 L153.563101,67.8845177 C153.563101,72.9340734 149.497466,77.0270256 144.481995,77.0270256 C139.466524,77.0270256 135.400889,72.9340734 135.400889,67.8845177 L127.018521,67.8845177 C127.018521,77.5947456 134.837311,85.4666717 144.481995,85.4666717 C154.124509,85.4666717 161.94175,77.5984908 161.94547,67.891384 L161.94578,67.891384 L161.94578,32.7195853 Z" id="Fill-3" fill="#FFFFFF"></path>
                <polygon id="Fill-5" fill="#FFFFFF" points="30.8522933 33.9134827 8.38264757 33.9134827 8.38264757 14.3972106 0.000278998954 14.3972106 0.000278998954 67.1442969 8.38264757 67.1442969 8.38264757 42.3531289 30.8522933 42.3531289 30.8522933 67.1442969 39.2346619 67.1442969 39.2346619 14.3972106 30.8522933 14.3972106"></polygon>
                <path d="M102.452942,60.3238856 C96.9554225,60.3238856 92.4985692,55.8370562 92.4985692,50.3021764 C92.4985692,44.7669844 96.9554225,40.280155 102.452942,40.280155 C107.950461,40.280155 112.407005,44.7669844 112.407005,50.3021764 C112.407005,55.8370562 107.950461,60.3238856 102.452942,60.3238856 M102.452942,31.8405089 C92.3255898,31.8405089 84.1162006,40.1060001 84.1162006,50.3021764 C84.1162006,60.4980405 92.3255898,68.7635317 102.452942,68.7635317 C112.579984,68.7635317 120.789683,60.4980405 120.789683,50.3021764 C120.789683,40.1060001 112.579984,31.8405089 102.452942,31.8405089" id="Fill-7" fill="#FFFFFF"></path>
                <g id="Group-11" transform="translate(177.629334, 0.261857)">
                    <mask id="mask-2" fill="white">
                        <use xlink:href="#path-1"></use>
                    </mask>
                    <g id="Clip-10"></g>
                    <path d="M183.954798,79.986504 L6.76504263,79.986504 C3.12596628,79.986504 0.148427443,76.9890423 0.148427443,73.3249232 L0.148427443,6.71161138 C0.148427443,3.04780433 3.12596628,0.0503426252 6.76504263,0.0503426252 L183.954798,0.0503426252 C187.593875,0.0503426252 190.571413,3.04780433 190.571413,6.71161138 L190.571413,73.3249232 C190.571413,76.9890423 187.593875,79.986504 183.954798,79.986504" id="Fill-9" fill="#FFFFFF" mask="url(#mask-2)"></path>
                </g>
                <mask id="mask-4" fill="white">
                    <use xlink:href="#path-3"></use>
                </mask>
                <g id="Clip-12"></g>
                <path d="M207.529679,41.6954741 L207.529679,15.6350399 L214.153115,15.6350399 L214.153115,41.6954741 L207.529679,41.6954741 Z M216.443462,57.0469887 C217.9291,56.716847 219.517883,56.1597411 221.20986,55.3756544 C222.901836,54.5915678 224.500936,53.436089 226.007208,51.9091834 C227.51348,50.3822778 228.834027,48.3808235 229.968889,45.9047603 C231.103752,43.4286972 231.691808,40.3955654 231.733076,36.8052738 L231.733076,15.6350399 L238.356511,15.6350399 L238.356511,36.8052738 C238.315244,41.7574001 237.531169,45.9356939 236.004263,49.3402807 C234.477357,52.7448675 232.465586,55.4994465 229.968889,57.6041001 C227.472192,59.7087538 225.099334,61.2253197 222.850243,62.1538434 C220.601153,63.082367 218.46558,63.773591 216.443462,64.2275359 L216.443462,57.0469887 Z" id="リ" fill="#07598F" mask="url(#mask-4)"></path>
                <path d="M256.389902,24.1155137 L256.389902,17.492078 L288.702364,17.492078 C288.083348,20.9998341 286.896919,24.7551402 285.143041,28.7581089 C283.389163,32.7610776 281.356758,36.5782843 279.045766,40.2098436 C281.191688,43.2223871 283.193142,45.7603137 285.050189,47.8236997 C286.907237,49.8870856 289.053126,51.9710741 291.487921,54.0757278 L291.487921,62.4943004 C290.868905,62.0403554 289.661843,61.0808954 287.866697,59.6158914 C286.071551,58.1508873 284.142314,56.3557685 282.078928,54.230481 C280.015542,52.1051935 277.663318,49.2268132 275.022184,45.595254 C271.844569,49.5156873 268.976506,52.600403 266.417907,54.8494937 C263.859309,57.0985843 261.486451,58.90402 259.299262,60.2658547 C257.112072,61.6276894 255.378854,62.5974662 254.099555,63.1752143 L254.099555,55.7470621 C257.277169,53.8900147 260.341251,51.5996907 263.291893,48.8760212 C266.242535,46.1523518 269.213766,42.7684496 272.205676,38.7242132 C275.197586,34.6799767 277.725196,29.8104589 279.788581,24.1155137 L256.389902,24.1155137 Z" id="ス" fill="#07598F" mask="url(#mask-4)"></path>
                <polygon id="ト" fill="#07598F" mask="url(#mask-4)" points="310.671614 64.0418321 310.671614 15.1398298 317.604556 15.1398298 317.604556 31.9769749 343.479286 31.9769749 343.479286 38.7242132 317.604556 38.7242132 317.604556 64.0418321"></polygon>
            </g>
        </g>
    </g>
</svg>
