<?xml version="1.0" encoding="UTF-8"?>
<svg width="419px" height="86px" viewBox="0 0 419 86" version="1.1" xmlns="http://www.w3.org/2000/svg" xmlns:xlink="http://www.w3.org/1999/xlink">
    <!-- Generator: Sketch 48.2 (47327) - http://www.bohemiancoding.com/sketch -->
    <title>logo-hrogchart</title>
    <desc>Created with Sketch.</desc>
    <defs>
        <polygon id="path-1" points="0.230057186 0.309619394 35.3191503 0.309619394 35.3191503 52.8413783 0.230057186 52.8413783"></polygon>
        <polygon id="path-3" points="0.149021745 0.0501682263 239.954285 0.0501682263 239.954285 79.6600563 0.149021745 79.6600563"></polygon>
        <polygon id="path-5" points="0 85.1178247 418.406657 85.1178247 418.406657 0.310831637 0 0.310831637"></polygon>
    </defs>
    <g id="SERVICEpage" stroke="none" stroke-width="1" fill="none" fill-rule="evenodd" transform="translate(-733.000000, -2417.000000)">
        <g id="チャート" transform="translate(0.000000, 2246.000000)">
            <g id="logo-hrogchart" transform="translate(733.000000, 171.000000)">
                <path d="M56.2592126,35.9931224 L56.2592126,23.0351731 L64.2450341,23.0351731 C67.8299647,23.0351731 70.7362781,25.9361648 70.7362781,29.5141478 C70.7362781,33.0924416 67.8299647,35.9931224 64.2450341,35.9931224 L56.2592126,35.9931224 Z M77.6738087,35.9931224 C78.6243089,34.0342615 79.157486,31.8366818 79.157486,29.5141478 C79.157486,27.1919246 78.6243089,24.9940341 77.6738087,23.0351731 C75.2601858,18.0609344 70.1542057,14.6299748 64.2450341,14.6299748 C64.2403626,14.6299748 64.2360025,14.6302857 64.2319538,14.6302857 L64.2319538,14.6299748 L47.8376932,14.6299748 L47.8376932,66.8702048 L56.2592126,66.8702048 L56.2592126,44.3980099 L57.732924,44.3980099 L74.3838072,66.8702048 L84.857996,66.8702048 L67.87668,43.9519665 C72.197532,42.8727591 75.7715625,39.9127094 77.6738087,35.9931224 Z" id="Fill-1" fill="#FFFFFF"></path>
                <g id="Group-5" transform="translate(127.376999, 32.276446)">
                    <mask id="mask-2" fill="white">
                        <use xlink:href="#path-1"></use>
                    </mask>
                    <g id="Clip-4"></g>
                    <path d="M17.774448,26.9258217 C12.7357378,26.9258217 8.65126512,22.8492647 8.65126512,17.8203197 C8.65126512,12.7913746 12.7357378,8.7148177 17.774448,8.7148177 C22.8128468,8.7148177 26.8973195,12.790753 26.8976309,17.8193872 L26.8976309,17.8212522 C26.8973195,22.8495756 22.8128468,26.9258217 17.774448,26.9258217 Z M35.3191503,0.309619394 L26.8976309,0.309619394 L26.8976309,2.8612363 C24.2395314,1.24273597 21.1161478,0.309619394 17.774448,0.309619394 C8.08507592,0.309619394 0.230057186,8.14972578 0.230057186,17.8203197 C0.230057186,27.4909136 8.08507592,35.33102 17.774448,35.33102 C21.1161478,35.33102 24.2395314,34.3979034 26.8976309,32.7794031 L26.8976309,35.33102 C26.8976309,40.3596542 22.8131582,44.4362111 17.774448,44.4362111 C12.7357378,44.4362111 8.65126512,40.3596542 8.65126512,35.33102 L0.230057186,35.33102 C0.230057186,45.0016139 8.08507592,52.8414094 17.774448,52.8414094 C27.4616401,52.8414094 35.3151016,45.0053438 35.3188388,35.3378583 L35.3191503,35.3378583 L35.3191503,0.309619394 Z" id="Fill-3" fill="#FFFFFF" mask="url(#mask-2)"></path>
                </g>
                <polygon id="Fill-6" fill="#FFFFFF" points="30.9952462 33.77509 8.42148823 33.77509 8.42148823 14.3384769 0.000280291684 14.3384769 0.000280291684 66.870267 8.42148823 66.870267 8.42148823 42.1802883 30.9952462 42.1802883 30.9952462 66.870267 39.4164541 66.870267 39.4164541 14.3384769 30.9952462 14.3384769"></polygon>
                <path d="M102.927653,60.0776943 C97.4046615,60.0776943 92.9271576,55.6091786 92.9271576,50.0968904 C92.9271576,44.5842913 97.4046615,40.1157757 102.927653,40.1157757 C108.450645,40.1157757 112.927838,44.5842913 112.927838,50.0968904 C112.927838,55.6091786 108.450645,60.0776943 102.927653,60.0776943 M102.927653,31.7105774 C92.7533767,31.7105774 84.5059496,39.9423316 84.5059496,50.0968904 C84.5059496,60.2511383 92.7533767,68.4828926 102.927653,68.4828926 C113.101619,68.4828926 121.349357,60.2511383 121.349357,50.0968904 C121.349357,39.9423316 113.101619,31.7105774 102.927653,31.7105774" id="Fill-8" fill="#FFFFFF"></path>
                <g id="Group-12" transform="translate(178.452372, 0.260788)">
                    <mask id="mask-4" fill="white">
                        <use xlink:href="#path-3"></use>
                    </mask>
                    <g id="Clip-11"></g>
                    <path d="M232.512385,79.6600563 L7.59138883,79.6600563 C3.49819594,79.6600563 0.149021745,76.3173729 0.149021745,72.2324235 L0.149021745,7.4774902 C0.149021745,3.39254082 3.49819594,0.0501682263 7.59138883,0.0501682263 L232.512385,0.0501682263 C236.605578,0.0501682263 239.954441,3.39254082 239.954441,7.4774902 L239.954441,72.2324235 C239.954441,76.3173729 236.605578,79.6600563 232.512385,79.6600563" id="Fill-10" fill="#FFFFFF" mask="url(#mask-4)"></path>
                </g>
                <mask id="mask-6" fill="white">
                    <use xlink:href="#path-5"></use>
                </mask>
                <g id="Clip-13"></g>
                <path d="M212.894075,41.2085366 L212.894075,33.8438042 L231.305906,33.8438042 L231.305906,22.8648974 L214.80345,22.8648974 L214.80345,15.5001649 L252.377224,15.5001649 L252.377224,22.8648974 L238.602447,22.8648974 L238.602447,33.8438042 L254.354791,33.8438042 L254.354791,41.2085366 L238.670639,41.2085366 C238.216023,46.3456905 237.056771,50.3462459 235.192848,53.2103229 C233.328925,56.0743998 231.169534,58.4383644 228.714611,60.3022875 C226.259688,62.1662106 223.782072,63.5527667 221.281687,64.4619975 C218.781302,65.3712283 216.55372,66.0531411 214.598874,66.5077565 L214.598874,59.211216 C217.053797,58.5292929 219.383666,57.5746149 221.588551,56.3471534 C223.793435,55.1196918 225.805078,53.4490053 227.62354,51.3350438 C229.442001,49.2210822 230.692175,45.8456136 231.374098,41.2085366 L212.894075,41.2085366 Z M263.765283,36.7078668 L263.765283,30.5023978 L270.038944,30.2978219 L269.016064,21.5010581 L275.153341,21.5010581 L276.176221,30.2296299 L300.316177,29.4795182 L300.316177,36.8442507 C299.497869,40.2993277 298.122678,43.3565703 296.190563,46.0160703 C294.258448,48.6755704 292.314996,50.7440394 290.36015,52.2215394 C288.405304,53.6990394 286.655061,54.7560043 285.109368,55.3924659 L285.109368,48.4368852 C289.610061,45.5273467 292.587747,41.3676783 294.042516,35.9577551 L276.926332,36.4350989 L280.67689,67.3260601 L274.539613,67.3260601 L270.789055,36.5032909 L263.765283,36.7078668 Z M309.590285,43.1179117 L309.590285,35.6849873 L339.59475,35.6849873 L339.59475,43.1179117 L309.590285,43.1179117 Z M351.528345,66.9851003 L351.528345,13.1134461 L359.165845,13.1134461 L359.165845,31.6616612 L387.670087,31.6616612 L387.670087,39.0945856 L359.165845,39.0945856 L359.165845,66.9851003 L351.528345,66.9851003 Z" id="チャート" fill="#0DB9D3" mask="url(#mask-6)"></path>
            </g>
        </g>
    </g>
</svg>
