<?xml version="1.0" encoding="UTF-8"?>
<svg width="372px" height="85px" viewBox="0 0 372 85" version="1.1" xmlns="http://www.w3.org/2000/svg" xmlns:xlink="http://www.w3.org/1999/xlink">
    <!-- Generator: Sketch 48.2 (47327) - http://www.bohemiancoding.com/sketch -->
    <title>logo-hrogmap</title>
    <desc>Created with Sketch.</desc>
    <defs>
        <polygon id="path-1" points="0 86.2952705 371.020142 86.2952705 371.020142 0 0 0"></polygon>
    </defs>
    <g id="SERVICEpage" stroke="none" stroke-width="1" fill="none" fill-rule="evenodd" transform="translate(-733.000000, -3136.000000)">
        <g id="マップ" transform="translate(0.000000, 2935.000000)">
            <g id="logo-hrogmap" transform="translate(733.000000, 201.000000)">
                <path d="M364.309325,80.5300214 L184.589846,80.5300214 C180.899135,80.5300214 177.879092,77.5102922 177.879092,73.8192675 L177.879092,6.71109976 C177.879092,3.01976064 180.899135,3.14424115e-05 184.589846,3.14424115e-05 L364.309325,3.14424115e-05 C368.000035,3.14424115e-05 371.020079,3.01976064 371.020079,6.71109976 L371.020079,73.8192675 C371.020079,77.5102922 368.000035,80.5300214 364.309325,80.5300214" id="Fill-1" fill="#FFFFFF"></path>
                <path d="M56.7991443,35.2090238 L56.7991443,22.1013113 L64.8616075,22.1013113 C68.4809434,22.1013113 71.4151493,25.0358315 71.4151493,28.6551675 C71.4151493,32.2748179 68.4809434,35.2090238 64.8616075,35.2090238 L56.7991443,35.2090238 Z M78.4192609,35.2090238 C79.3788833,33.227523 79.9171774,31.0045445 79.9171774,28.6551675 C79.9171774,26.3061049 79.3788833,24.082812 78.4192609,22.1013113 C75.982474,17.0698966 70.8274906,13.5992832 64.8616075,13.5992832 L64.8484016,13.5992832 L48.2968018,13.5992832 L48.2968018,66.4429721 L56.7991443,66.4429721 L56.7991443,43.7113663 L58.2869992,43.7113663 L75.0976845,66.4429721 L85.6723964,66.4429721 L68.5281071,43.2598532 C72.8904272,42.1681727 76.4987584,39.1739119 78.4192609,35.2090238 Z" id="Fill-3" fill="#FFFFFF"></path>
                <path d="M146.544496,58.6864436 C141.457429,58.6864436 137.333756,54.5627713 137.333756,49.4757036 C137.333756,44.3886358 141.457429,40.2649635 146.544496,40.2649635 C151.63125,40.2649635 155.754922,44.3883214 155.755236,49.4750747 L155.755236,49.4766468 C155.754922,54.5634002 151.63125,58.6864436 146.544496,58.6864436 Z M164.257579,31.7629355 L155.755236,31.7629355 L155.755236,34.3437286 C153.071627,32.7068367 149.918267,31.7629355 146.544496,31.7629355 C136.762133,31.7629355 128.831728,39.6933405 128.831728,49.4757036 C128.831728,59.2583811 136.762133,67.1887861 146.544496,67.1887861 C149.918267,67.1887861 153.071627,66.2448849 155.755236,64.6076785 L155.755236,67.1887861 C155.755236,72.2758539 151.631564,76.3995261 146.544496,76.3995261 C141.457429,76.3995261 137.333756,72.2758539 137.333756,67.1887861 L128.831728,67.1887861 C128.831728,76.9711492 136.762133,84.9015542 146.544496,84.9015542 C156.324658,84.9015542 164.253491,76.9752367 164.257264,67.1957034 L164.257579,67.1957034 L164.257579,31.7629355 Z" id="Fill-5" fill="#FFFFFF"></path>
                <polygon id="Fill-7" fill="#FFFFFF" points="31.2927142 32.9653876 8.50231106 32.9653876 8.50231106 13.3041333 0.000282981704 13.3041333 0.000282981704 66.4430664 8.50231106 66.4430664 8.50231106 41.4677301 31.2927142 41.4677301 31.2927142 66.4430664 39.7947423 66.4430664 39.7947423 13.3041333 31.2927142 13.3041333"></polygon>
                <path d="M103.915472,59.5723021 C98.3394749,59.5723021 93.8189994,55.0518266 93.8189994,49.4758293 C93.8189994,43.8995177 98.3394749,39.3793566 103.915472,39.3793566 C109.491469,39.3793566 114.011631,43.8995177 114.011631,49.4758293 C114.011631,55.0518266 109.491469,59.5723021 103.915472,59.5723021 M103.915472,30.8770141 C93.6435508,30.8770141 85.3169713,39.2042223 85.3169713,49.4758293 C85.3169713,59.7477508 93.6435508,68.0743302 103.915472,68.0743302 C114.187079,68.0743302 122.513973,59.7477508 122.513973,49.4758293 C122.513973,39.2042223 114.187079,30.8770141 103.915472,30.8770141" id="Fill-9" fill="#FFFFFF"></path>
                <mask id="mask-2" fill="white">
                    <use xlink:href="#path-1"></use>
                </mask>
                <g id="Clip-11"></g>
                <path d="M203.212425,24.2855678 L203.212425,16.8538426 L245.187909,16.8538426 L245.187909,24.3543801 C244.316283,30.2722649 242.813897,35.2152302 240.680706,39.1834243 C238.547515,43.1516184 236.253795,46.3628256 233.799479,48.8171422 C231.345162,51.2714587 228.558293,53.5995839 225.438788,55.8015876 L232.044766,66.3986772 L223.305608,66.3986772 L205.552042,37.3598992 L214.222388,37.3598992 L221.585301,49.4020465 C224.246055,47.8422939 226.57418,45.9499754 228.569746,43.7250342 C230.565312,41.500093 232.446162,38.7820355 234.212352,35.5707801 C235.978543,32.3595248 237.113934,28.597825 237.61856,24.2855678 L203.212425,24.2855678 Z M261.221168,24.2855678 L264.937031,45.1356857 L259.294425,45.1356857 L255.784999,24.2855678 L261.221168,24.2855678 Z M260.326609,67.5684858 L260.326609,61.1001324 C264.638866,60.3202561 268.457909,58.4967492 271.783852,55.6295569 C275.109795,52.7623647 277.632886,49.4938145 279.353202,45.8238084 C281.073517,42.1538023 282.369469,38.6100058 283.241095,35.1923126 C284.112721,31.7746195 284.754963,28.1849486 285.167839,24.4231923 L291.292131,24.4231923 C291.062755,27.4509474 290.638417,30.536 290.019104,33.6784427 C289.39979,36.8208854 288.413491,40.2155901 287.060176,43.8626587 C285.706861,47.5097273 283.7572,51.019118 281.211133,54.3909361 C278.665066,57.7627542 275.580014,60.641372 271.955883,63.026876 C268.331752,65.4123799 264.455366,66.9262348 260.326609,67.5684858 Z M272.644005,24.2855678 L276.42868,45.1356857 L270.717262,45.1356857 L267.207836,24.2855678 L272.644005,24.2855678 Z M302.302094,24.4231923 L302.302094,16.8538426 L335.607233,16.8538426 C335.515483,16.3492168 335.469608,15.7987241 335.469608,15.2023481 C335.469608,13.0920946 336.203598,11.2800563 337.671601,9.76617876 C339.139603,8.29817632 340.928704,7.56418611 343.038958,7.56418611 C345.149211,7.56418611 346.949781,8.30964492 348.440721,9.8005849 C349.931661,11.2915249 350.67712,13.0920946 350.67712,15.2023481 C350.67712,17.3126016 349.931661,19.1017028 348.440721,20.5697052 C346.949781,22.0377076 345.149211,22.7716978 343.038958,22.7716978 C342.396707,22.7716978 341.777403,22.7028863 341.181027,22.565261 L341.181027,25.3177519 C341.089276,31.8320127 340.068571,37.428688 338.118881,42.1079458 C336.16919,46.7872036 333.864002,50.6291836 331.203247,53.6340011 C328.542493,56.6388186 325.709749,58.9784124 322.704932,60.6528527 C319.700115,62.3272929 316.855902,63.6003072 314.17221,64.4719337 C311.488519,65.3435601 309.02277,65.9858015 306.774891,66.3986772 L306.774891,58.8981398 C309.619146,58.3476388 312.463358,57.4874941 315.307613,56.3176796 C318.151868,55.1478652 320.938737,53.3472954 323.668304,50.9159164 C326.397871,48.4845374 328.725996,45.2962674 330.652749,41.3510108 C332.579502,37.4057543 333.680488,31.7632045 333.955738,24.4231923 L302.302094,24.4231923 Z M346.479571,15.2023481 C346.479571,14.1930964 346.146982,13.3673575 345.481793,12.7251064 C344.816605,12.0828553 344.002334,11.7617346 343.038958,11.7617346 C342.075581,11.7617346 341.272779,12.0828553 340.630528,12.7251064 C339.988277,13.3673575 339.667157,14.1930964 339.667157,15.2023481 C339.667157,16.1657247 339.988277,16.9685265 340.630528,17.6107776 C341.272779,18.2530286 342.075581,18.5741494 343.038958,18.5741494 C344.002334,18.5741494 344.816605,18.2530286 345.481793,17.6107776 C346.146982,16.9685265 346.479571,16.1657247 346.479571,15.2023481 Z" id="マップ" fill="#008774" mask="url(#mask-2)"></path>
            </g>
        </g>
    </g>
</svg>
